<svg width="17" height="16" viewBox="0 0 17 16" fill="none" xmlns="http://www.w3.org/2000/svg">
<mask id="mask0_20_573" style="mask-type:luminance" maskUnits="userSpaceOnUse" x="0" y="0" width="17" height="16">
<path d="M16.2812 0H0.28125V16H16.2812V0Z" fill="white"/>
</mask>
<g mask="url(#mask0_20_573)">
<path d="M15.6315 10.11L14.2115 8.69C13.9064 8.39872 13.5008 8.23619 13.079 8.23619C12.6572 8.23619 12.2516 8.39872 11.9465 8.69L11.4465 9.19C11.1073 9.528 10.6479 9.71778 10.169 9.71778C9.69013 9.71778 9.23076 9.528 8.89151 9.19C8.50651 8.805 8.26151 8.545 8.01651 8.29C7.77151 8.035 7.51651 7.76 7.11651 7.365C6.77882 7.02661 6.58917 6.56807 6.58917 6.09C6.58917 5.61193 6.77882 5.15339 7.11651 4.815L7.61651 4.315C7.76562 4.16703 7.88392 3.99099 7.96459 3.79703C8.04526 3.60308 8.0867 3.39506 8.08651 3.185C8.0847 2.76115 7.91582 2.35512 7.61651 2.055L6.19651 0.625C5.79537 0.225577 5.2526 0.000919443 4.68651 0C4.40767 0.000410905 4.13165 0.0558271 3.87425 0.163075C3.61686 0.270322 3.38315 0.427294 3.18651 0.625L1.83151 1.97C0.855083 2.94779 0.306641 4.27315 0.306641 5.655C0.306641 7.03685 0.855083 8.36221 1.83151 9.34C2.61151 10.12 3.50151 11 4.38651 11.92C5.27151 12.84 6.14151 13.7 6.91651 14.5C7.8941 15.4749 9.21839 16.0224 10.599 16.0224C11.9797 16.0224 13.3039 15.4749 14.2815 14.5L15.6315 13.15C16.0285 12.7513 16.253 12.2126 16.2565 11.65C16.2615 11.3644 16.2086 11.0808 16.1012 10.8162C15.9938 10.5516 15.8341 10.3114 15.6315 10.11ZM14.8765 12.375L14.7315 12.5L13.2815 11.045C13.2332 10.99 13.1742 10.9455 13.108 10.9142C13.0419 10.8829 12.97 10.8655 12.8968 10.8632C12.8237 10.8608 12.7508 10.8734 12.6827 10.9003C12.6147 10.9272 12.5529 10.9678 12.5011 11.0196C12.4493 11.0713 12.4088 11.1332 12.3819 11.2012C12.355 11.2693 12.3423 11.3421 12.3447 11.4153C12.3471 11.4884 12.3644 11.5603 12.3957 11.6265C12.427 11.6927 12.4715 11.7517 12.5265 11.8L14.0015 13.275L13.5515 13.725C12.7736 14.5005 11.72 14.936 10.6215 14.936C9.52307 14.936 8.46942 14.5005 7.69151 13.725C6.92151 12.955 6.04651 12.065 5.19151 11.175C4.33651 10.285 3.41151 9.37 2.63151 8.59C1.85598 7.81209 1.42049 6.75845 1.42049 5.66C1.42049 4.56155 1.85598 3.50791 2.63151 2.73L3.08151 2.28L4.50651 3.75C4.60597 3.85277 4.74218 3.91182 4.88518 3.91417C5.02817 3.91651 5.16624 3.86196 5.26901 3.7625C5.37179 3.66304 5.43084 3.52684 5.43318 3.38384C5.43553 3.24084 5.38097 3.10277 5.28151 3L3.78151 1.5L3.92651 1.355C4.02505 1.25487 4.14259 1.17543 4.27224 1.12134C4.40189 1.06725 4.54103 1.03959 4.68151 1.04C4.96497 1.04085 5.23651 1.15414 5.43651 1.355L6.86151 2.8C6.96042 2.8998 7.01609 3.0345 7.01651 3.175C7.01658 3.24462 7.00292 3.31358 6.97632 3.37792C6.94973 3.44226 6.91071 3.50074 6.86151 3.55L6.36151 4.05C5.82414 4.58893 5.52237 5.31894 5.52237 6.08C5.52237 6.84106 5.82414 7.57107 6.36151 8.11C6.78151 8.5 7.01151 8.745 7.28151 9C7.55151 9.255 7.78151 9.53 8.17651 9.92C8.71544 10.4574 9.44545 10.7591 10.2065 10.7591C10.9676 10.7591 11.6976 10.4574 12.2365 9.92L12.7365 9.42C12.8386 9.32366 12.9737 9.26999 13.114 9.26999C13.2544 9.26999 13.3894 9.32366 13.4915 9.42L14.9115 10.84C15.0114 10.9387 15.0907 11.0563 15.1448 11.1859C15.1989 11.3155 15.2267 11.4546 15.2265 11.595C15.224 11.7412 15.1916 11.8853 15.1314 12.0186C15.0712 12.1518 14.9845 12.2714 14.8765 12.37V12.375Z" fill="white"/>
</g>
</svg>
