<svg width="17" height="16" viewBox="0 0 17 16" fill="none" xmlns="http://www.w3.org/2000/svg">
<mask id="mask0_20_583" style="mask-type:luminance" maskUnits="userSpaceOnUse" x="0" y="0" width="17" height="16">
<path d="M16.3906 0H0.390625V16H16.3906V0Z" fill="white"/>
</mask>
<g mask="url(#mask0_20_583)">
<path d="M8.39041 0.888672C6.98397 0.888672 5.60911 1.30573 4.43969 2.08711C3.27027 2.86849 2.35882 3.97909 1.8206 5.27848C1.28238 6.57786 1.14155 8.00767 1.41594 9.38709C1.69032 10.7665 2.36759 12.0336 3.3621 13.0281C4.3566 14.0226 5.62368 14.6999 7.0031 14.9743C8.38252 15.2487 9.81233 15.1078 11.1117 14.5696C12.4111 14.0314 13.5217 13.1199 14.3031 11.9505C15.0845 10.7811 15.5015 9.40623 15.5015 7.99978C15.5015 6.1138 14.7523 4.30506 13.4187 2.97147C12.0852 1.63787 10.2764 0.888672 8.39041 0.888672ZM5.88819 2.37311L6.69263 3.17756C6.78144 3.2653 6.85192 3.3698 6.89998 3.48501C6.94805 3.60022 6.97275 3.72384 6.97263 3.84867V5.03978C6.97333 5.1643 6.94933 5.28773 6.90204 5.40292C6.85474 5.51811 6.78508 5.62279 6.69708 5.71089L5.63486 6.77311C5.45912 6.9479 5.31959 7.15564 5.22425 7.38444C5.12892 7.61323 5.07967 7.85859 5.0793 8.10645V8.81311C5.08055 9.02062 5.01391 9.22284 4.88954 9.38894C4.76516 9.55504 4.58988 9.67591 4.39041 9.73311L2.65263 10.222C2.07671 8.74887 2.09173 7.11027 2.69454 5.64794C3.29736 4.1856 4.44144 3.01244 5.88819 2.37311ZM3.05708 11.1109L4.63041 10.6665C5.02521 10.5514 5.37225 10.3119 5.61975 9.98345C5.86725 9.65505 6.00195 9.25544 6.00374 8.84423V8.11534C6.00363 7.9905 6.02833 7.86689 6.07639 7.75168C6.12446 7.63647 6.19494 7.53196 6.28374 7.44423L7.34597 6.382C7.5217 6.20721 7.66124 5.99947 7.75657 5.77068C7.8519 5.54188 7.90116 5.29653 7.90152 5.04867V3.84867C7.90116 3.60081 7.8519 3.35545 7.75657 3.12666C7.66124 2.89787 7.5217 2.69012 7.34597 2.51534L6.88374 2.03089C7.68277 1.82424 8.5153 1.7811 9.33141 1.90405C10.1475 2.02701 10.9304 2.31352 11.6331 2.74642C12.3358 3.17931 12.9438 3.74966 13.4206 4.42327C13.8975 5.09687 14.2334 5.85985 14.4082 6.66645L12.8349 6.93311C12.2332 7.0322 11.6933 7.36031 11.3282 7.84867L10.7549 8.60867C10.5891 8.82946 10.4747 9.08451 10.4201 9.35519C10.3655 9.62586 10.372 9.90531 10.4393 10.1731C10.5036 10.4255 10.4791 10.6922 10.3698 10.9286C10.2605 11.1649 10.0732 11.3564 9.8393 11.4709C9.55106 11.6069 9.29853 11.8083 9.10179 12.0591C8.90504 12.3098 8.76951 12.603 8.70597 12.9154L8.45708 14.1554C7.36941 14.1642 6.29844 13.8877 5.35095 13.3535C4.40346 12.8193 3.61255 12.0461 3.05708 11.1109ZM9.44819 14.0798L9.6393 13.1198C9.67575 12.9484 9.75237 12.7881 9.86286 12.6521C9.97335 12.5161 10.1146 12.4083 10.2749 12.3376C10.7024 12.127 11.0444 11.7757 11.2435 11.3427C11.4426 10.9097 11.4866 10.4214 11.3682 9.95978C11.3343 9.82892 11.3307 9.69205 11.3576 9.55958C11.3846 9.42711 11.4414 9.30254 11.5238 9.19534L12.0971 8.43534C12.3123 8.14507 12.6303 7.94794 12.986 7.88423L14.5104 7.63089C14.5875 9.13185 14.1186 10.61 13.1906 11.7921C12.2625 12.9743 10.9379 13.7806 9.46152 14.062L9.44819 14.0798Z" fill="white"/>
</g>
</svg>
